<svg viewBox="0 0 26 23" class="SvgIcon SvgIcon--100-days-return">
<path d="M7.794.912L7.8 1v3.262h9.7c4.096 0 7.942 3.875 7.942 7.895 0 1.93-.369 3.615-.986 5.046-.374.87-.754 1.467-1.02 1.785a.499.499 0 01-.146.12 7.065 7.065 0 01-6.036 3.076h-.017c-3.806-.114-6.841-3.22-6.841-7.02 0-1.324.368-2.563 1.009-3.62L7.8 11.533v3.26a.5.5 0 01-.804.397l-.065-.06L.63 8.234a.5.5 0 01-.057-.599L.63 7.56 6.93.663a.5.5 0 01.863.249zm9.657 8.23c-3.344 0-6.054 2.698-6.054 6.023 0 3.257 2.604 5.922 5.856 6.019h.017a6.054 6.054 0 002.793-.585 6.019 6.019 0 003.443-5.434c0-3.325-2.71-6.022-6.055-6.022zm3.051 3.398a.5.5 0 01.131.627l-.049.075-3.837 4.853a.5.5 0 01-.666.108l-.076-.06-2.102-2.052a.5.5 0 01.629-.773l.07.057 1.705 1.664 3.493-4.417a.5.5 0 01.702-.082zM6.801 2.29L1.677 7.896l5.124 5.608v-2.473a.5.5 0 01.411-.492l.09-.008 4.837.014a7.052 7.052 0 015.312-2.402 7.05 7.05 0 016.903 5.567c.059-.495.09-1.013.09-1.553 0-3.397-3.26-6.753-6.722-6.89l-.22-.005H7.3a.5.5 0 01-.492-.41l-.008-.09V2.289z"></path>

</svg>