<svg id="category-VacuumCleaners" viewBox="0 0 20 20" class="SvgIcon SvgIcon--category-vacuumCleaners"><g fill-rule="nonzero"><path d="M8.882 9.47h-1V0h1zM12.742 9.48h-1V0h1z"></path><path d="M7.052 11.357a3.14 3.14 0 01.974-2.253 3.109 3.109 0 012.256-.864 3.19 3.19 0 013.32 3.12v1.32h3.204a2.155 2.155 0 011.96 1.289l.772 1.654c.159.35.242.73.244 1.117v2.5H.882v-2.4c.008-.414.102-.823.276-1.199l.781-1.702a1.991 1.991 0 011.793-1.149h3.32v-1.433zm2.96 1.433v1H3.736a.989.989 0 00-.89.569l-.78 1.7a1.99 1.99 0 00-.184.791v1.39h16.9v-1.497a1.725 1.725 0 00-.153-.702l-.775-1.662a1.159 1.159 0 00-1.052-.699h-4.2v-2.307a2.19 2.19 0 00-.692-1.544c-.429-.401-1-.614-1.628-.59a2.14 2.14 0 00-2.23 2.121v1.43h1.96z"></path></g></svg>