<svg id="category-SmallKitchenAppliances" viewBox="0 0 20 20" class="SvgIcon SvgIcon--category-smallKitchenAppliances"><g fill-rule="nonzero"><path d="M1.775 7.68V4.998A4.99 4.99 0 016.765.03h10.28a2.55 2.55 0 012.55 2.55v17.15H2.705a1.94 1.94 0 01-1.386-3.296 1.91 1.91 0 011.356-.564h6.8c1.966 0 3.45-1.763 3.45-4.52V7.68H1.775zm16.72-5.1c0-.8-.65-1.45-1.45-1.45H6.765A3.89 3.89 0 002.875 5v1.58h11.15v4.77c0 3.326-1.93 5.62-4.55 5.62h-6.8a.81.81 0 00-.81.82c0 .464.376.84.84.84h15.79V2.58z"></path><path d="M6.74 8.528l.189 1.084a4.986 4.986 0 00-.393.09 5.78 5.78 0 00-.885.31c-.705.32-1.086.704-1.086 1.118 0 1.038 1.228 2.64 2.27 2.64v1.1c-1.723 0-3.37-2.149-3.37-3.74 0-.96.676-1.642 1.733-2.12a6.858 6.858 0 011.054-.37c.216-.058.385-.094.489-.112z"></path><path d="M6.74 9.612l.19-1.084c.102.018.271.054.486.112a6.82 6.82 0 011.051.37c1.053.478 1.728 1.161 1.728 2.12 0 1.589-1.645 3.74-3.36 3.74v-1.1c1.033 0 2.26-1.604 2.26-2.64 0-.415-.38-.799-1.083-1.118a5.743 5.743 0 00-.88-.31 4.95 4.95 0 00-.392-.09z"></path><path d="M7.385 14.32h-1.1V7.13h1.1z"></path></g></svg>