<svg id="category-Cooking" viewBox="0 0 20 20" class="SvgIcon SvgIcon--category-cooking"><g fill-rule="nonzero"><path d="M1.43 2.815l.003.048a15.2 15.2 0 00.35 2.417c.292 1.236.736 2.214 1.337 2.839.254.263.518.453.792.577.737.335 1.555.2 2.373-.252.068-.038.133-.076.193-.113L1.43 2.815zm5.386 6.592c-1.092.603-2.25.794-3.359.29a3.685 3.685 0 01-1.13-.816c-.76-.79-1.281-1.938-1.614-3.348a16.276 16.276 0 01-.377-2.594 17.467 17.467 0 01-.044-1.51l.002-.089.049-1.342 17.517 19.14-.812.743L7.232 9.155a5.808 5.808 0 01-.416.252z"></path><path d="M1.735 19.886l-.802-.752 16.28-17.37.802.752z"></path><path d="M19.054 3.502l.8.756-2.79 2.95a3.08 3.08 0 01-4.47-4.235l2.78-2.95.8.754-2.77 2.939a1.98 1.98 0 00.12 2.758c.78.735 2.004.716 2.75-.032l2.78-2.94z"></path></g></svg>