<svg id="category-Cooling" viewBox="0 0 21 20" class="SvgIcon SvgIcon--category-cooling"><g fill-rule="nonzero"><path d="M6.934 4.553l.955-.546 6.08 10.64-.955.546z"></path><path d="M6.972 3.512V0h1.1v5.448L3.4 2.662l.563-.944zM13.892 19.11h-1.1v-5.45l4.672 2.798-.565.944-3.007-1.801zM4.353 10.12l-.002-1.1L16.6 9l.002 1.1z"></path><path d="M.42 7.828l.544-.956 4.732 2.7L.952 12.25l-.54-.958 3.055-1.724zM20.443 11.282l-.543.956-4.733-2.689 4.744-2.688.542.958-3.057 1.732zM7.879 15.104l-.954-.548 6.11-10.63.954.548z"></path><path d="M3.93 17.365l-.556-.95 4.706-2.748-.048 5.448-1.1-.01.031-3.512zM16.934 1.745l.555.95-4.706 2.748.049-5.438 1.1.01-.032 3.502z"></path></g></svg>