<svg id="category-Wine" viewBox="3 2 14 16" class="SvgIcon SvgIcon--category-wine"><path d="M10.811 2c.48 0 .869.418.869.934v3.321l.03.017c.579.338 1.01.89 1.226 1.538l.008-.008.031-.024V5.16c0-.461.341-.837.766-.853h1.332c.43 0 .78.364.795.822l.001.031v2.594l.017.01c.674.412 1.098 1.175 1.114 2.009V16.468c0 .462-.34.837-.766.854H13.057c-.103.391-.438.678-.835.678H7.778c-.397 0-.732-.287-.835-.678H3.796c-.43 0-.78-.365-.795-.823L3 16.468V9.82c0-.853.427-1.637 1.114-2.058l.017-.01V5.159c0-.461.34-.837.766-.853H6.23c.43 0 .78.364.795.822V7.766l.027.019.017.013a2.79 2.79 0 011.215-1.522l.037-.021V2.934c0-.494.357-.899.81-.932l.029-.001.03-.001h1.622zm-.14 3.186H9.329v1.729l-.272.151-.294.165c-.52.307-.844.895-.844 1.535v8.15h4.162v-8.15c0-.64-.324-1.228-.844-1.535l-.036-.021-.53-.295V5.186zm4.189 1.899h-.876v1.327l-.273.151a.95.95 0 00-.304.248c-.19.222-.307.52-.316.935v6.492h2.9V9.82c0-.466-.235-.894-.613-1.121l-.037-.021-.481-.267V7.085zm-8.844 0H5.14v1.327l-.483.268a1.296 1.296 0 00-.647 1.099l-.001.042v6.416h2.9V9.798c0-.63-.185-1.002-.57-1.209l-.031-.016-.292-.146V7.085zM14.86 5.39h-.876V6h.876v-.61zm-8.844 0H5.14V6h.876v-.61zm4.655-2.305H9.329v1.017h1.342V3.085z"></path></svg>