<svg viewBox="0 0 27 19" class="SvgIcon SvgIcon--home-delivery"><path d="M17.002.52a.5.5 0 01.492.41l.008.09v2.967h3.578a.5.5 0 01.327.122l.063.065 2.674 3.331 2.169 2.17a.5.5 0 01.14.275l.006.079v5.967a.5.5 0 01-.41.492l-.09.008h-2.257a2.669 2.669 0 01-5.238.03H8.516a2.669 2.669 0 01-5.238-.03H1.021a.5.5 0 01-.492-.41l-.008-.09V1.021A.5.5 0 01.93.529L1.02.52h15.981zm4.078 13.806a1.67 1.67 0 00-1.669 1.67 1.668 1.668 0 103.338 0 1.67 1.67 0 00-1.669-1.67zm-15.18 0a1.67 1.67 0 00-1.669 1.67 1.668 1.668 0 003.338.018l-.003-.015v-.016l.003.013a1.67 1.67 0 00-1.669-1.67zm11.602 1.199h.95a2.67 2.67 0 015.25-.028h1.757v-5.261l-2.058-2.064-2.56-3.185H17.5v10.538zm-1-14.004H1.521v13.975h1.757a2.67 2.67 0 015.244.003h7.98V1.521z"></path></svg>