<svg viewBox="0 0 25 25" class="SvgIcon SvgIcon--installation"><path d="M23.015 19.88a3.153 3.153 0 00-.968-2.588c-.975-.939-2.433-1.199-3.684-.69a.694.694 0 01-.739-.138L7.937 7.15a.627.627 0 01-.144-.708 3.14 3.14 0 00-.716-3.546 3.325 3.325 0 00-2.646-.928l1.161 1.26c.11.118.17.27.17.428v1.938a.66.66 0 01-.674.646H3.073a.689.689 0 01-.458-.172L1.36 4.947c-.09.925.244 1.856.969 2.553.969.932 2.425 1.183 3.683.67a.694.694 0 01.739.138l9.688 9.299a.63.63 0 01.144.708 3.14 3.14 0 00.716 3.545 3.431 3.431 0 002.662.932l-1.25-1.246a.633.633 0 01-.187-.448V19.16a.66.66 0 01.673-.646h2.015c.17 0 .333.061.457.172l1.346 1.194zm-.016-3.501c1.366 1.313 1.745 3.277 1.004 4.96-.181.412-.734.526-1.077.222l-1.977-1.755h-1.08v1.032l1.863 1.857a.634.634 0 01-.223 1.043c-1.753.712-3.796.348-5.162-.965-1.255-1.207-1.677-2.961-1.163-4.544l-9.08-8.716c-1.651.498-3.477.104-4.728-1.1C.01 7.096-.367 5.168.372 3.486c.182-.413.736-.527 1.078-.222l1.887 1.682h1.078V3.9L2.701 2.04a.634.634 0 01.242-1.024 4.723 4.723 0 015.086.966c1.255 1.206 1.676 2.962 1.163 4.545l9.081 8.732c1.646-.493 3.472-.087 4.726 1.12z"></path></svg>