<svg viewBox="0 0 26 28" class="SvgIcon SvgIcon--phone-outline"><path d="M14.343 20.492c-1.773-1.302-3.207-2.582-4.3-3.84-1.839-2.219-2.89-4.01-3.556-5.339a314.443 314.443 0 002.81-2.645c.323-.318.127-.79 0-1.24-.127-.45-.684-3.719-.786-4.552-.103-.834-.177-1.414-1.357-1.414H2.478c-.421 0-1.147.269-1.147 1.414 0 6.272 1.787 11.58 5.36 15.924 3.39 4.37 8.589 6.92 15.594 7.648 1.15.12 1.497-.566 1.54-.98l.49-4.602c.123-1.161-.453-1.295-1.28-1.483-.826-.188-4.055-1.077-4.493-1.249-.44-.172-.893-.415-1.247-.13-.353.285-2.952 2.488-2.952 2.488zm.714-2.175c.807-.682 1.33-1.121 1.486-1.247.424-.342.924-.449 1.434-.375.284.042.477.108.847.259l.015.006.14.057c.35.136 3.502 1.01 4.323 1.196 1.632.371 2.391 1.034 2.206 2.78l-.489 4.6c-.134 1.262-1.218 2.22-2.858 2.049-7.312-.76-12.812-3.458-16.396-8.08C2.009 14.997.13 9.418.13 2.876.131 1.229 1.208.262 2.478.262h4.676c1.758 0 2.345.818 2.548 2.467.101.825.65 4.018.75 4.374.01.036.018.065.042.142l.003.01c.115.388.161.583.174.87.023.52-.14 1.012-.532 1.399-.195.191-.91.865-2.164 2.04.75 1.364 1.7 2.764 2.974 4.301.874 1.006 1.99 2.037 3.35 3.092l.758-.64z"></path></svg>