<svg viewBox="0 0 14 16" class="SvgIcon SvgIcon--compare-arrow comparison-cta__icon"><path d="M4.578 8.602l.089.075.062.071a.7.7 0 01.013.83l-.075.089L3.033 11.3h8.624l.113.01a.7.7 0 01-.018 1.384l-.095.006H3.034l1.633 1.633.062.072a.7.7 0 01-.966.992l-.086-.074-2.829-2.828-.062-.072a.7.7 0 01-.013-.83l.075-.088 2.829-2.828.071-.063a.7.7 0 01.83-.012zM10.252.614l.071.063 2.829 2.828a.7.7 0 01.062.918l-.062.072-2.829 2.828a.7.7 0 01-1.052-.918l.062-.072L10.965 4.7H2.343a.7.7 0 01-.113-1.39l.113-.01h8.623L9.333 1.667a.7.7 0 01-.062-.919l.062-.071a.7.7 0 01.919-.063z"></path></svg>